<svg width="8" height="13" viewBox="0 0 8 13" fill="none" xmlns="http://www.w3.org/2000/svg">
<g clip-path="url(#clip0_1_1295)">
<path d="M0.30753 1.60183C0.128968 1.42067 0.0297676 1.1823 0.0396877 0.934402C0.0396877 0.6865 0.138888 0.457665 0.32737 0.276506C0.505932 0.104881 0.753933 6.59102e-08 1.01186 8.84585e-08C1.26978 1.11007e-07 1.51778 0.0858127 1.70626 0.257438L7.32102 5.65408C7.4103 5.73989 7.47974 5.84478 7.52934 5.95919C7.57894 6.07361 7.6087 6.19756 7.6087 6.32151C7.6087 6.44546 7.57894 6.56941 7.52934 6.69336C7.47974 6.80778 7.4103 6.91266 7.32102 6.99847L1.70626 12.3951C1.61698 12.4809 1.50786 12.5572 1.38882 12.6049C1.25986 12.6526 1.1309 12.6812 1.00193 12.6812C0.872973 12.6812 0.734092 12.6621 0.615051 12.6144C0.49601 12.5667 0.386889 12.4905 0.287689 12.4047C0.198408 12.3188 0.128967 12.2044 0.0793672 12.09C0.0198465 11.9756 6.74824e-06 11.8516 6.75991e-06 11.7182C6.77074e-06 11.5942 0.0297667 11.4703 0.0793673 11.3558C0.128967 11.2414 0.208328 11.1365 0.307529 11.0412L5.21797 6.32151L4.28548 5.43478L0.30753 1.60183Z" fill="#181725"/>
</g>
<defs>
<clipPath id="clip0_1_1295">
<rect width="7.6087" height="12.6812" fill="white" transform="translate(7.6087 12.6812) rotate(-180)"/>
</clipPath>
</defs>
</svg>
