<svg width="21" height="18" viewBox="0 0 21 18" fill="none" xmlns="http://www.w3.org/2000/svg">
<path d="M3.256 7.9805L10.343 15.0675L17.4301 7.9805C18.0567 7.35392 18.4087 6.50409 18.4087 5.61797C18.4087 4.73184 18.0567 3.88201 17.4301 3.25543C17.1198 2.94518 16.7515 2.69907 16.3461 2.53117C15.9408 2.36326 15.5063 2.27684 15.0676 2.27684C14.1814 2.27684 13.3316 2.62885 12.705 3.25543L10.343 5.61741L7.98107 3.25655C7.35289 2.63837 6.50588 2.29346 5.62456 2.29694C4.74323 2.30043 3.89898 2.65202 3.27571 3.27515C2.65244 3.89827 2.30064 4.74244 2.29695 5.62376C2.29326 6.50509 2.63797 7.35218 3.256 7.9805ZM9.55572 1.67967L10.343 2.46699L11.1304 1.67967C11.6466 1.15891 12.2606 0.745236 12.9371 0.462405C13.6136 0.179574 14.3393 0.0331529 15.0726 0.0315473C15.8059 0.0299416 16.5322 0.173183 17.21 0.453049C17.8877 0.732914 18.5035 1.14389 19.022 1.66239C19.5405 2.18088 19.9515 2.79668 20.2314 3.47443C20.5112 4.15218 20.6545 4.87854 20.6529 5.6118C20.6513 6.34506 20.5048 7.07078 20.222 7.7473C19.9392 8.42383 19.5255 9.03782 19.0047 9.55404L11.1315 17.4284C11.0281 17.5319 10.9052 17.6141 10.77 17.6701C10.6349 17.7262 10.4899 17.755 10.3436 17.755C10.1973 17.755 10.0523 17.7262 9.91715 17.6701C9.78196 17.6141 9.65914 17.5319 9.55572 17.4284L1.68134 9.55515C1.1535 9.04059 0.733085 8.42635 0.444483 7.74804C0.155881 7.06974 0.00483724 6.34088 0.000114297 5.60375C-0.00460864 4.86662 0.137083 4.13588 0.41697 3.45394C0.696857 2.77199 1.10937 2.15241 1.63057 1.63113C2.15178 1.10985 2.7713 0.697253 3.45321 0.417269C4.13512 0.137286 4.86583 -0.00450938 5.60296 0.000109306C6.3401 0.00472799 7.06898 0.155668 7.74732 0.444175C8.42566 0.732681 9.03997 1.15301 9.5546 1.68078L9.55572 1.67967Z" fill="#181725"/>
</svg>
